<svg xmlns="http://www.w3.org/2000/svg" xmlns:xlink="http://www.w3.org/1999/xlink" width="375" height="135" viewBox="0 0 375 135">
    <defs>
        <linearGradient id="b" x1="6.432%" x2="93.612%" y1="71.552%" y2="71.552%">
            <stop offset="0%" stop-color="#EF5662"/>
            <stop offset="100%" stop-color="#E02A38"/>
        </linearGradient>
        <path id="a" d="M0 0h375v135H0z"/>
        <path id="d" d="M142.778 1.125c.269.253.527.498.773.733.266.255.528.512.787.774-.256.24-.51.485-.76.733-.26.259-.528.512-.8.76l-1.52-1.493c.502-.507 1.008-1.01 1.52-1.507zm-3.08 0c.269.253.526.498.773.733.266.255.528.512.787.774-.257.24-.51.485-.76.733-.261.259-.528.512-.8.76l-1.52-1.493c.501-.507 1.008-1.01 1.52-1.507zm6.16 0c.269.253.527.498.773.733.266.255.528.512.787.774-.256.24-.51.485-.76.733a25.98 25.98 0 0 1-.8.76l-1.52-1.493c.502-.507 1.008-1.01 1.52-1.507zm-36.632 4.5c.269.253.527.498.773.733.266.255.529.512.788.774-.257.24-.51.485-.76.733-.262.259-.529.512-.801.76l-1.52-1.493c.502-.507 1.008-1.01 1.52-1.507zm-3.08 0c.269.253.527.498.773.733.266.255.528.512.787.774-.256.24-.51.485-.76.733-.26.259-.528.512-.8.76l-1.52-1.493c.502-.507 1.008-1.01 1.52-1.507zm-9.241 0c.269.253.527.498.773.733.266.255.528.512.787.774-.256.24-.51.485-.76.733-.26.259-.528.512-.8.76l-1.52-1.493c.502-.507 1.008-1.01 1.52-1.507zM80.03 12c.27.253.527.498.774.733.265.255.528.512.787.774-.257.24-.51.485-.76.733-.261.259-.528.512-.8.76l-1.52-1.493c.501-.507 1.008-1.01 1.52-1.507zm-3.08 0c.27.253.527.498.773.733.266.255.529.512.788.774-.257.24-.51.485-.76.733-.261.259-.529.512-.801.76l-1.52-1.493c.502-.507 1.008-1.01 1.52-1.507zm45.036-12c.27.253.528.498.774.733.266.255.528.512.787.774-.256.24-.51.485-.76.733a25.98 25.98 0 0 1-.8.76l-1.52-1.493C120.97 1 121.475.497 121.987 0zm-47.82 1.125c.27.253.528.498.774.733.266.255.529.512.788.774-.257.24-.51.485-.76.733-.262.259-.529.512-.801.76l-1.52-1.493c.502-.507 1.008-1.01 1.52-1.507zm42.597 9.48a3.632 3.632 0 0 1-.91-.616c-.27.245-.576.451-.906.612-.322.156-.939.247-1.848.274h-8.473V9.32h8.473c.7-.021 1.119-.067 1.257-.137.137-.07.259-.16.363-.27.105-.11.188-.242.249-.394.06-.154.09-.324.09-.512V5.01h1.58v2.997c0 .188.032.358.096.512.112.287.328.524.608.664.138.07.28.116.43.137v.008h1.506a5.299 5.299 0 0 1-.216-.697 2.714 2.714 0 0 1-.074-.6V6.508c0-.392.077-.76.232-1.103a2.914 2.914 0 0 1 1.559-1.515 2.89 2.89 0 0 1 1.137-.225c.403 0 .782.075 1.138.225.355.15.666.355.93.612.265.258.475.559.629.903.155.348.234.723.232 1.103v1.523c0 .183-.027.383-.08.6-.052.218-.125.45-.218.697h8.362c.231 0 .434-.034.608-.1a1.122 1.122 0 0 0 .674-.652 1.188 1.188 0 0 0-.004-.887 1.202 1.202 0 0 0-.683-.68c-.17-.071-.369-.106-.595-.106h-4.558a2.17 2.17 0 0 1-.641-.06c-.2-.051-.378-.132-.53-.242a1.238 1.238 0 0 1-.36-.403 1.116 1.116 0 0 1-.132-.552V5.55a1.757 1.757 0 0 1 .128-.568c.115-.273.273-.526.468-.75.1-.115.204-.235.314-.358a3.24 3.24 0 0 0 .083-.113l1.191-1.322c.397-.44.794-.883 1.191-1.329.221.188.422.36.604.512.182.153.378.315.588.487l-2.887 3.24h4.574a3.03 3.03 0 0 1 2.093.813c.259.247.467.541.612.866.149.33.223.675.223 1.035 0 .312-.105.734-.314 1.265h1.087c.15-.021.287-.083.425-.153.138-.07.26-.16.364-.27a1.21 1.21 0 0 0 .248-.395c.06-.153.091-.323.091-.51V5.001h1.58v2.997a1.32 1.32 0 0 0 .418.983c.124.112.266.198.426.258a1.401 1.401 0 0 0 .976 0 1.27 1.27 0 0 0 .728-.677c.077-.167.116-.355.116-.564V5.002h1.588v2.997a1.268 1.268 0 0 0 .831 1.233c.157.059.319.091.484.096.166-.005.327-.037.484-.096a1.288 1.288 0 0 0 .84-1.233V5.002h1.58v3.03c0 .38-.079.739-.236 1.074a2.967 2.967 0 0 1-.633.887 3.194 3.194 0 0 1-2.019.882 3.053 3.053 0 0 1-1.124-.254 3.732 3.732 0 0 1-1.01-.64c-.32.3-.66.518-1.021.652-.351.132-.72.214-1.096.242a2.973 2.973 0 0 1-1.1-.238 3.433 3.433 0 0 1-1.018-.656 3.844 3.844 0 0 1-.91.612c-.325.156-.659.255-1.012.282h-18.87a2.874 2.874 0 0 1-1.01-.27zm3.933-2.038c.074.164.174.302.298.415.124.112.266.2.426.262.155.06.32.094.488.1h-.008c.17.01.336-.01.496-.06.16-.051.303-.132.43-.242.127-.11.23-.251.307-.423.076-.172.115-.376.115-.612V6.549c0-.237-.038-.44-.116-.613a1.228 1.228 0 0 0-.302-.423 1.213 1.213 0 0 0-.43-.245 1.413 1.413 0 0 0-.492-.073c-.165.01-.328.047-.488.109a1.35 1.35 0 0 0-.426.261 1.247 1.247 0 0 0-.298.416 1.357 1.357 0 0 0-.112.567v1.459c0 .21.038.396.112.56zm5.19-4.338a2.102 2.102 0 0 1 .368-.923c.09-.132.192-.26.302-.387l.34-.39 2.018-2.265.694.605-3.656 4.1a1.66 1.66 0 0 1-.066-.74zm-24.193 3.746c0 .252-.005.51-.016.777-.01.263-.038.526-.083.786a4.206 4.206 0 0 1-.194.737c-.081.226-.2.437-.352.624-.193-.113-.37-.212-.529-.298a32.656 32.656 0 0 1-.513-.282c.033-.172.06-.36.079-.564.019-.204.028-.427.028-.669V8.91c0-.07-.005-.134-.016-.193V1.288h1.596v6.687zM80.188 9.19c.138-.07.26-.16.364-.27a1.22 1.22 0 0 0 .249-.394c.06-.154.09-.324.09-.512V5.018h1.58v2.997c0 .188.032.358.096.512.111.287.328.524.608.664.138.07.281.116.43.137h7.558c.232 0 .434-.034.608-.1a1.122 1.122 0 0 0 .674-.652 1.188 1.188 0 0 0-.004-.887 1.202 1.202 0 0 0-.682-.68c-.171-.071-.37-.106-.596-.106h-4.558c-.225.01-.44-.01-.64-.06-.202-.051-.379-.132-.53-.242a1.238 1.238 0 0 1-.36-.403 1.116 1.116 0 0 1-.132-.552V5.55a1.757 1.757 0 0 1 .128-.568c.114-.273.272-.526.468-.75.099-.115.203-.235.314-.358a3.24 3.24 0 0 0 .083-.113l1.19-1.322c.398-.44.795-.883 1.192-1.329a58.978 58.978 0 0 0 1.191.999l-2.887 3.24h4.574a3.032 3.032 0 0 1 2.093.813c.26.247.467.541.612.866.149.33.224.675.224 1.035 0 .312-.106.734-.315 1.265h4.642v1.547H83.604v.008a2.874 2.874 0 0 1-1.009-.27 3.632 3.632 0 0 1-.91-.616c-.27.245-.575.451-.905.612-.323.156-.94.247-1.85.274v-.008h-4.334a7.62 7.62 0 0 1-.244.95 3.03 3.03 0 0 1-.351.742c-.293.419-.7.759-1.22 1.02-.521.26-1.165.39-1.932.39-.43-.001-.86-.042-1.282-.121v-1.49c.196.064.398.112.604.14.205.03.412.044.62.045.265 0 .523-.03.773-.09.243-.055.475-.149.687-.277.207-.127.386-.294.525-.491.144-.202.243-.447.298-.737.028-.382.051-.78.07-1.193a28.1 28.1 0 0 0 .03-1.297v-.338c0-.13-.003-.245-.009-.347v-2.78h1.597v3.376c0 .103-.002.209-.005.319l-.008.33c-.003.11-.007.21-.012.302h4.194c.7-.021 1.12-.067 1.257-.137zm-33.577 2.78c.269.253.527.498.773.733.266.255.529.512.788.774-.257.24-.51.485-.76.733-.262.259-.529.512-.801.76l-1.52-1.493c.502-.507 1.008-1.01 1.52-1.507zm-3.08 0c.269.253.527.498.773.733l.396.384.391.39c-.256.24-.51.485-.76.733-.26.259-.528.512-.8.76l-1.52-1.493c.501-.507 1.008-1.01 1.52-1.507zm-3.137 0c.27.253.528.498.774.733.266.255.529.512.788.774-.257.24-.51.485-.76.733-.261.259-.529.512-.801.76l-1.52-1.493c.501-.507 1.008-1.01 1.52-1.507zm12.244-7.198c.35 0 .68.056.994.17.313.112.595.297.824.539.237.246.424.564.563.955.139.39.208.867.208 1.432v1.36l1.343.007c.149-.022.287-.084.425-.154.138-.07.26-.159.363-.27a1.21 1.21 0 0 0 .25-.394c.06-.153.09-.324.09-.511V4.909h1.58v2.997a1.32 1.32 0 0 0 .417.983c.125.113.267.199.426.258a1.401 1.401 0 0 0 .976 0 1.27 1.27 0 0 0 .729-.677c.077-.166.116-.354.116-.564V4.91h1.588v2.997a1.268 1.268 0 0 0 .831 1.233c.157.06.318.091.484.097.165-.006.326-.038.484-.097a1.288 1.288 0 0 0 .84-1.233V4.91h1.58v3.03c0 .38-.08.74-.236 1.075a2.967 2.967 0 0 1-.633.886 3.194 3.194 0 0 1-2.019.883 3.053 3.053 0 0 1-1.124-.254 3.732 3.732 0 0 1-1.01-.64c-.32.3-.66.518-1.021.652-.352.132-.72.213-1.096.242a2.973 2.973 0 0 1-1.1-.238 3.433 3.433 0 0 1-1.018-.656 3.844 3.844 0 0 1-.91.611c-.325.156-.659.256-1.012.283h-1.406a4.41 4.41 0 0 1-.199.753c-.166.467-.42.898-.747 1.27a3.54 3.54 0 0 1-1.194.871 3.787 3.787 0 0 1-1.588.324H49.88l-.092-1.68h1.571c.39 0 .727-.053 1.01-.161.282-.108.516-.255.701-.44.186-.186.48-.625.5-.902h-.932c-.534 0-.97-.057-1.31-.17-.339-.112-.606-.28-.8-.5a1.851 1.851 0 0 1-.41-.809c-.076-.318-.115-1.223-.115-1.624 0-.4.057-.778.17-1.132.105-.34.275-.657.5-.932.226-.27.507-.489.825-.64.329-.159.709-.238 1.14-.238zm-14.024 0v4.326h9.368v1.547h-9.414a4.692 4.692 0 0 1-.57 1.631c-.28.49-.844.956-1.365 1.217-.521.26-1.148.27-1.915.27H33.42V12.14h1.232c.265 0 .515.015.766-.044.243-.056.474-.15.686-.278.208-.127.387-.294.526-.491.143-.202.243-.447.298-.738.027-.381.05-.642.07-1.056a28.1 28.1 0 0 0 .029-1.297V7.9c0-.13-.003-.244-.008-.347v-2.78h1.596zm-15.004 0v5.444a4.714 4.714 0 0 1-.616 2.06c-.28.49-.845.956-1.365 1.217-.522.26-1.149.27-1.915.27h-1.3V12.14h1.232c.265 0 .516.015.766-.044.243-.056.475-.15.687-.278.207-.127.386-.294.525-.491.144-.202.243-.447.298-.738.028-.381.051-.642.07-1.056a28.1 28.1 0 0 0 .03-1.297V7.9c0-.13-.003-.244-.009-.347v-2.78h1.597zM14.659 0c.22.188.422.359.604.511.181.154.377.316.587.488l-2.887 3.239h4.574a3.032 3.032 0 0 1 2.093.813c.26.247.467.542.612.867.149.33.224.675.224 1.035 0 .311-.106.733-.315 1.265-.515 1.03-1.241 1.547-2.178 1.547H9.945v.008a2.874 2.874 0 0 1-1.009-.27 3.632 3.632 0 0 1-.91-.616c-.27.245-.575.45-.905.612-.296.142-.67.201-1.43.23l-.218.008h-1.83c-.226 0-.424.034-.595.105-.314.123-.562.37-.683.68a1.188 1.188 0 0 0-.004.886 1.122 1.122 0 0 0 .675.653c.13.05.276.082.44.094l.168.007h11.65v1.546H3.174c-.936 0-1.662-.515-2.178-1.546-.209-.532-.314-.954-.314-1.265 0-.36.075-.705.223-1.036a2.74 2.74 0 0 1 .613-.866c.259-.247.568-.444.926-.592.286-.118.593-.189.919-.212l.248-.01h1.563c.7-.02 1.218-.03 1.355-.1.138-.07.26-.16.364-.27a1.22 1.22 0 0 0 .249-.395c.06-.153.09-.323.09-.512V3.908h1.58v2.996c0 .188.032.359.096.512.111.288.328.525.608.665.138.07.281.115.43.137h7.558c.232 0 .434-.034.608-.101s.316-.157.426-.27c.11-.113.193-.24.249-.383a1.188 1.188 0 0 0-.005-.886 1.202 1.202 0 0 0-.682-.68c-.171-.07-.37-.105-.596-.105h-4.558c-.225.01-.44-.01-.64-.061-.202-.05-.379-.131-.53-.242a1.238 1.238 0 0 1-.36-.403 1.116 1.116 0 0 1-.132-.551v-.097a1.757 1.757 0 0 1 .128-.568c.114-.272.272-.525.468-.75.099-.114.203-.234.314-.358a3.24 3.24 0 0 0 .083-.112l1.19-1.322c.398-.44.795-.883 1.192-1.329zm12.156 0v7.77c0 .187.032.358.095.511.112.288.329.525.608.665.138.07.281.115.43.137v.008h1.506a5.299 5.299 0 0 1-.216-.697 2.714 2.714 0 0 1-.074-.6V6.27c0-.392.077-.76.232-1.104a2.914 2.914 0 0 1 1.559-1.515 2.89 2.89 0 0 1 1.137-.225c.403 0 .782.075 1.138.225.355.15.666.355.93.613.265.258.475.558.629.902.155.348.234.724.232 1.104v1.523c0 .183-.065 1.049-.53 1.775-.465.727-1.19 1.069-1.994 1.069h-4.549c-.596 0-1.461-.216-1.971-.865-.51-.65-.742-1.341-.742-2.004V0h1.58zm5.2 4.978c-.166.01-.328.047-.488.109a1.35 1.35 0 0 0-.426.261 1.247 1.247 0 0 0-.298.416 1.357 1.357 0 0 0-.112.567V7.79c0 .21.038.397.112.56.074.165.174.303.298.415.124.113.266.2.425.263.156.06.321.094.488.1h-.007c.17.01.336-.01.496-.06.16-.051.303-.132.43-.242.127-.11.229-.251.306-.423.077-.172.116-.376.116-.613V6.332c0-.237-.039-.441-.116-.613a1.228 1.228 0 0 0-.302-.423 1.213 1.213 0 0 0-.43-.245 1.413 1.413 0 0 0-.492-.073zm20.561 1.428c-.338 0-.6.102-.785.308-.185.206-.293.611-.293 1.001 0 .36-.03 1.083.13 1.227.159.144.6.181 1.072.181h1.017V7.854c0-.534-.1-.91-.3-1.125-.2-.215-.48-.323-.84-.323zM87.168.264l.695.605-3.657 4.1c-.078-.239-.1-.492-.066-.74a2.098 2.098 0 0 1 .369-.923c.09-.132.191-.26.301-.387l.34-.39L87.168.263zM8.01.341c.269.253.527.498.773.733.266.255.528.512.787.773-.256.241-.51.486-.76.734a25.98 25.98 0 0 1-.8.76L6.49 1.847C6.992 1.34 7.498.838 8.01.341zm-3.081 0c.27.253.528.498.774.733l.396.384.391.39c-.256.24-.51.485-.76.733a25.98 25.98 0 0 1-.8.76L3.41 1.847C3.911 1.34 4.417.838 4.93.341z"/>
    </defs>
    <g fill="none" fill-rule="evenodd">
        <mask id="c" fill="#fff">
            <use xlink:href="#a"/>
        </mask>
        <use fill="url(#b)" xlink:href="#a"/>
        <g fill="#FEFEFE" mask="url(#c)" opacity=".4">
            <path fill-opacity=".35" d="M323.544 0l-.542 12.234c-.07 1.617 1.45 3.278 3.065 3.35l9.384.414c1.545.07 2.93-1.346 3.007-3.08L339 .682 323.544 0zm20.586 14.877c-.183 4.139-3.671 7.3-7.859 7.115l-12.142-.539c-4.211-.185-7.308-3.567-7.121-7.777L317.879-6 345-4.8l-.87 19.677z"/>
            <path fill-opacity=".49" d="M220 13.78L243.702 1l2.647 5.57-23.702 12.78zM198.726 4l1.305 7.094-11.475 12.369-15.251-8.143L172 8.225l15.25 8.144z"/>
            <path fill-opacity=".42" d="M277.018 17l.002-.023-.02-.001.018.024zm4.368-12.476c-1.606-.107-3.306 1.197-3.426 2.628l-.786 9.43-.021.245-.097 1.173-.008-.001-.568-.037-5.48-.364.117-1.39-.006-.002.915-10.959c.317-3.803 3.842-6.51 8.105-6.227L294-.06l-.45 5.39-12.164-.806z"/>
            <path fill-opacity=".28" d="M-9.456 0l-.542 12.234c-.07 1.617 1.45 3.278 3.065 3.35l9.384.414c1.545.07 2.93-1.346 3.007-3.08L6 .682-9.456 0zM11.13 14.877c-.183 4.139-3.671 7.3-7.859 7.115l-12.142-.539c-4.211-.185-7.308-3.567-7.121-7.777L-15.121-6 12-4.8l-.87 19.677z"/>
            <path fill-opacity=".49" d="M153.789 15.07l-6.56 5.066-19.1-3.21L128-.934 134.56-6l.129 17.86z"/>
            <path fill-opacity=".42" d="M87.294-3l13.207 23.305-5.295 2.831L82-.169z"/>
            <path fill-opacity=".28" d="M392.726 4l1.305 7.094-11.475 12.369-15.251-8.143L366 8.225l15.25 8.144z"/>
            <path fill-opacity=".35" d="M36 10l.032-.017-.014-.007L36 10zm12.13-6.604c-1.156-1.066-3.372-1.011-4.468.11l-7.225 7.384-.188.19-.898.92-.004-.004-.408-.377L31 7.987l1.064-1.09-.003-.004 8.396-8.582c2.913-2.976 7.51-3.092 10.575-.265L61 7.237l-4.129 4.22-8.742-8.061z"/>
            <g opacity=".5">
                <path fill-opacity=".42" d="M278.553 37l-5.28 11.14c-.697 1.474 0 3.639 1.407 4.367l8.164 4.231c1.344.697 3.128-.05 3.877-1.63L292 43.969 278.553 37zm12.672 21.843c-1.846 3.73-6.33 5.22-10.098 3.35l-10.929-5.423c-3.79-1.88-5.262-6.245-3.384-10.04L275.59 29 300 41.114l-8.775 17.729z"/>
                <path fill-opacity=".35" d="M317 46.743L343.721 41l1.258 5.935-26.72 5.743z"/>
                <path fill-opacity=".49" d="M222 43.59l3.99-7.394L243.754 33l6.225 18.187-3.989 7.393-6.226-18.185zM176 47l.042-.02-.006-.018L176 47zm14.617-2.75c-.65-1.42-2.718-2.193-4.168-1.558l-9.563 4.184-.247.109-1.191.519-.003-.005-.23-.502L173 42.153l1.411-.617-.003-.004 11.115-4.863c3.856-1.686 8.147-.085 9.87 3.683L201 52.61 195.534 55l-4.917-10.75z"/>
                <path fill-opacity=".42" d="M81 44.923l5.937 10.564c.785 1.397 2.853 1.954 4.173 1.125l7.654-4.81c1.26-.793 1.622-2.74.781-4.24L93.608 37 81 44.923zm24.963.767c2.092 3.512.922 8.003-2.633 10.114l-10.314 6.122c-3.576 2.123-7.962 1.01-10.086-2.562L73 42.674 96.035 29l9.928 16.69z"/>
                <path fill-opacity=".35" d="M42.828 63.939l-7.634-3.582L31 42.998 48.88 36l7.635 3.582-17.88 6.998z"/>
                <path fill-opacity=".28" d="M-16 45.847L10.635 40l1.253 6.042-26.633 5.847z"/>
                <path fill-opacity=".49" d="M128 51.712L152.774 38l3.114 5.312-24.774 13.71z"/>
                <path fill-opacity=".28" d="M370 47l.042-.02-.006-.018L370 47zm14.617-2.316c-.65-1.495-2.718-2.309-4.168-1.64l-9.563 4.405-.247.114-1.191.546-.003-.005-.23-.529L367 42.477l1.411-.65-.003-.004 11.115-5.119c3.856-1.775 8.147-.09 9.87 3.877L395 53.485 389.534 56l-4.917-11.316z"/>
            </g>
            <g opacity=".2">
                <path fill-opacity=".35" d="M333.908 85.431l-2.886 6.71-16.684 4.986L306 82.709 308.885 76l8.339 14.416z"/>
                <path fill-opacity=".49" d="M174.577 100.582L170 73.97l6.111-.97 4.577 26.61zM248.525 82l1.007 5.462-5.526.993-1.006-5.46z"/>
                <path fill-opacity=".35" d="M63.756 76l-11.89.925c-1.571.121-2.987 1.69-2.858 3.161l.755 8.54c.125 1.406 1.663 2.495 3.349 2.363L65 90.064 63.756 76zM51.86 97.974c-4.027.335-7.515-2.65-7.853-6.723l-.98-11.814c-.34-4.098 2.55-7.51 6.645-7.85L68.81 70 71 96.388l-19.14 1.586z"/>
                <path fill-opacity=".28" d="M367.577 100.582L363 73.97l6.111-.97 4.577 26.61z"/>
                <path fill-opacity=".49" d="M120 89l.018-.042-.018-.01V89zm9.562-11.314c-1.454-.635-3.522.136-4.171 1.556l-4.275 9.352-.11.243-.532 1.163-.006-.003-.514-.224L115 87.608l.631-1.378-.004-.002 4.968-10.87c1.722-3.771 6.014-5.375 9.869-3.69L143 77.143l-2.444 5.345-10.994-4.803z"/>
            </g>
        </g>
        <g mask="url(#c)">
            <g transform="translate(14 29)">
                <rect width="347" height="40" fill="#000" opacity=".1" rx="5"/>
                <rect width="169" height="36" x="176" y="2" fill="#FFF" rx="3"/>
                <g transform="translate(13 13)">
                    <mask id="e" fill="#fff">
                        <use xlink:href="#d"/>
                    </mask>
                    <use fill="#FFF" fill-rule="nonzero" xlink:href="#d"/>
                    <g fill="#FFF" mask="url(#e)">
                        <path d="M1 0h147v15H1z"/>
                    </g>
                </g>
                <g fill="#EF394E" fill-rule="nonzero">
                    <path d="M199.904 25c.263.253.516.498.756.733.241.235.498.493.77.774a37.93 37.93 0 0 0-.742.733c-.241.244-.503.498-.784.76l-1.487-1.493A150.16 150.16 0 0 1 199.904 25zm-3.014 0c.264.253.516.498.757.733.24.235.498.493.77.774l-.376.366-.367.367c-.24.244-.502.498-.784.76l-1.486-1.493A150.159 150.159 0 0 1 196.89 25zm15.126-10.89l.59.512c.179.153.37.315.575.487l-2.824 3.24h4.475a2.91 2.91 0 0 1 2.048.813c.253.247.453.536.599.866.145.33.218.675.218 1.035 0 .312-.102.733-.307 1.265h5.876v1.547H203.4v.008a2.764 2.764 0 0 1-.987-.27 3.55 3.55 0 0 1-.89-.616 3.79 3.79 0 0 1-.887.612c-.315.156-.918.247-1.808.274v-.008h-4.908a7.65 7.65 0 0 1-.24.95c-.094.29-.208.538-.343.742-.286.419-.684.759-1.194 1.02-.51.26-1.14.39-1.89.39a6.693 6.693 0 0 1-1.254-.121v-1.49c.189.064.386.11.59.14.206.03.408.045.608.045.259 0 .511-.03.756-.089.246-.059.47-.152.672-.278.203-.126.374-.29.514-.491.14-.202.237-.447.291-.737.027-.382.05-.78.07-1.193.018-.413.028-.846.028-1.297v-.338c0-.13-.003-.245-.009-.347v-2.78h1.562v3.376c0 .102 0 .209-.004.319l-.008.33c-.002.11-.006.21-.012.302h4.77c.686-.021 1.096-.067 1.23-.137a1.218 1.218 0 0 0 .599-.665c.06-.153.09-.323.09-.511v-2.997h1.545v2.997a1.35 1.35 0 0 0 .336.906c.1.11.217.2.352.27.135.07.276.116.421.137H214.8c.226 0 .425-.033.595-.1.17-.068.309-.158.416-.27.108-.113.19-.24.243-.383a1.208 1.208 0 0 0-.004-.886 1.188 1.188 0 0 0-.668-.68 1.504 1.504 0 0 0-.582-.106h-4.46c-.22.01-.43-.01-.627-.06a1.483 1.483 0 0 1-.518-.242 1.136 1.136 0 0 1-.482-.955v-.096a1.788 1.788 0 0 1 .125-.568 2.797 2.797 0 0 1 .459-.75c.097-.115.2-.235.307-.358a3.237 3.237 0 0 0 .081-.113l1.165-1.321c.389-.44.777-.884 1.166-1.33zm14.42.178v6.687c0 .252-.005.511-.015.777a6.3 6.3 0 0 1-.081.786 4.28 4.28 0 0 1-.19.737 2.16 2.16 0 0 1-.344.624 16.657 16.657 0 0 0-.518-.298c-.157-.086-.324-.18-.502-.282.032-.172.058-.36.077-.564a7.29 7.29 0 0 0 .028-.669v-.177c0-.07-.005-.134-.016-.193v-7.428h1.562zm31.094-.178a60.692 60.692 0 0 0 1.165.999l-2.824 3.24h4.475a2.91 2.91 0 0 1 2.047.813c.254.247.454.536.6.866.145.33.218.675.218 1.035 0 .312-.103.733-.308 1.265h1.064c.146-.021.281-.083.416-.153a1.218 1.218 0 0 0 .599-.665c.06-.153.089-.323.089-.511v-2.997h1.546v2.997c0 .21.037.397.113.564a1.26 1.26 0 0 0 .712.677 1.342 1.342 0 0 0 .955 0 1.26 1.26 0 0 0 .712-.677 1.35 1.35 0 0 0 .114-.564v-2.997h1.553v2.997c0 .21.037.396.11.56a1.253 1.253 0 0 0 .704.672c.154.06.311.092.473.097.162-.005.32-.037.474-.097a1.27 1.27 0 0 0 .708-.672c.075-.164.113-.35.113-.56v-2.997h1.546v3.029c0 .381-.077.74-.23 1.076-.155.335-.361.63-.62.886-.259.255-.558.46-.898.616-.34.156-.699.245-1.077.266a2.933 2.933 0 0 1-1.1-.254 3.642 3.642 0 0 1-.988-.64c-.313.3-.646.518-1 .652-.353.135-.71.215-1.071.242a2.856 2.856 0 0 1-1.077-.238 3.352 3.352 0 0 1-.995-.656 3.756 3.756 0 0 1-.89.612 2.715 2.715 0 0 1-.99.282h-18.464a2.764 2.764 0 0 1-.987-.27 3.55 3.55 0 0 1-.89-.616 3.79 3.79 0 0 1-.887.612c-.315.156-.918.247-1.808.274h-11.626V22.32h11.626c.685-.021 1.095-.067 1.23-.137s.253-.16.356-.27c.102-.11.183-.241.243-.395.059-.153.089-.323.089-.511V18.01h1.545v2.997a1.35 1.35 0 0 0 .336.906c.1.11.217.2.352.27.135.07.275.116.421.137v.008h1.473a5.385 5.385 0 0 1-.21-.697 2.77 2.77 0 0 1-.073-.6v-1.523c0-.392.075-.76.226-1.103.151-.344.356-.645.615-.903.26-.258.563-.462.91-.612.349-.15.72-.226 1.114-.226.394 0 .764.076 1.112.226.348.15.652.354.91.612.26.258.465.559.616.903.151.343.227.711.227 1.103v1.523c0 .183-.026.383-.077.6-.052.218-.123.45-.215.697h8.182c.226 0 .424-.033.594-.1.17-.068.31-.158.417-.27.108-.113.189-.24.243-.383a1.208 1.208 0 0 0-.004-.886 1.188 1.188 0 0 0-.668-.68 1.504 1.504 0 0 0-.582-.106h-4.46c-.22.01-.43-.01-.627-.06a1.483 1.483 0 0 1-.518-.242 1.136 1.136 0 0 1-.482-.955v-.096a1.788 1.788 0 0 1 .125-.568 2.797 2.797 0 0 1 .458-.75c.097-.115.2-.235.308-.358a3.236 3.236 0 0 0 .08-.113l1.166-1.321c.389-.44.777-.884 1.166-1.33zm-7.98 4.085c-.161.01-.32.047-.477.109a1.253 1.253 0 0 0-.708.677c-.073.163-.11.353-.11.568v1.458c0 .21.037.396.11.56a1.253 1.253 0 0 0 .708.677c.157.061.316.095.478.1h-.009c.168.011.33-.01.486-.06.157-.051.297-.132.42-.242.125-.11.225-.251.3-.423.076-.172.114-.376.114-.612v-1.458c0-.237-.038-.44-.114-.613a1.228 1.228 0 0 0-.295-.423 1.181 1.181 0 0 0-.42-.245 1.355 1.355 0 0 0-.482-.073zm-15.744.43c.264.253.516.498.757.733.24.235.498.493.77.774l-.376.366-.367.367c-.24.244-.502.498-.784.76l-1.486-1.493a150.173 150.173 0 0 1 1.486-1.507zm-3.013 0c.263.253.515.498.756.733s.498.493.77.774a37.93 37.93 0 0 0-.742.733c-.241.244-.503.498-.784.76l-1.487-1.493a150.164 150.164 0 0 1 1.487-1.507zm-9.041 0c.264.253.516.498.757.733.24.235.497.493.77.774a37.93 37.93 0 0 0-.743.733c-.24.244-.502.498-.784.76l-1.486-1.493a150.16 150.16 0 0 1 1.486-1.507zm34.653-5.36l.68.604-3.578 4.1a1.693 1.693 0 0 1-.064-.74c.027-.183.071-.35.133-.5.062-.15.138-.292.227-.423.089-.132.187-.26.295-.387l.332-.39 1.975-2.265zm-45.514 0l.68.604-3.577 4.1a1.693 1.693 0 0 1-.065-.74c.027-.183.071-.35.133-.5.062-.15.138-.292.227-.423.089-.132.187-.26.295-.387l.332-.39 1.975-2.265zm59.078.86c.263.253.516.498.757.733.24.235.497.493.77.774a37.93 37.93 0 0 0-.743.733c-.241.244-.502.498-.784.76l-1.487-1.493a150.172 150.172 0 0 1 1.487-1.507zm-3.014 0c.264.253.516.498.757.733.24.235.498.493.77.774l-.376.366-.367.367c-.24.244-.502.498-.784.76l-1.486-1.493a150.168 150.168 0 0 1 1.486-1.507zm6.027 0c.264.253.516.498.757.733s.498.493.77.774l-.376.366-.367.367c-.24.244-.502.498-.784.76l-1.486-1.493a150.164 150.164 0 0 1 1.486-1.507zm-79.482 0c.264.253.516.498.757.733.24.235.497.493.77.774a37.93 37.93 0 0 0-.743.733c-.241.244-.502.498-.784.76l-1.486-1.493a150.158 150.158 0 0 1 1.486-1.507zM249.627 13c.264.253.516.498.757.733.24.235.498.493.77.774l-.376.366-.367.367c-.24.244-.502.498-.784.76l-1.486-1.493A150.172 150.172 0 0 1 249.627 13zM322.706 25c.263.253.516.498.757.733.24.235.497.493.77.774a37.93 37.93 0 0 0-.743.733c-.241.244-.502.498-.784.76l-1.486-1.493A150.122 150.122 0 0 1 322.706 25zm-3.014 0c.264.253.516.498.757.733s.498.493.77.774l-.376.366-.367.367c-.24.244-.502.498-.784.76l-1.486-1.493A150.122 150.122 0 0 1 319.692 25zm-4.143 0c.263.253.516.498.756.733.241.235.498.493.77.774a37.93 37.93 0 0 0-.742.733c-.241.244-.503.498-.784.76l-1.487-1.493A150.168 150.168 0 0 1 315.55 25zm-3.014 0c.264.253.516.498.757.733.24.235.498.493.77.774l-.376.366-.367.367c-.24.244-.502.498-.784.76l-1.486-1.493A150.21 150.21 0 0 1 312.535 25zm13.184 0c.264.253.516.498.757.733s.498.493.77.774l-.376.366-.367.367c-.24.244-.502.498-.784.76l-1.486-1.493A150.21 150.21 0 0 1 325.72 25zm-45.76-7.7c.28.237.563.5.846.79.283.29.54.597.773.919.232.322.423.655.574.999.151.344.238.685.26 1.023 0 .381-.078.744-.231 1.088a2.989 2.989 0 0 1-1.534 1.526c-.345.153-.712.23-1.1.23h-2.024v-1.547h1.99c.228 0 .426-.039.596-.117.17-.078.31-.178.42-.302.111-.123.195-.264.251-.423.057-.158.088-.315.094-.471a1.71 1.71 0 0 0-.227-.604 4.352 4.352 0 0 0-.465-.649 8.177 8.177 0 0 0-.624-.648 15.92 15.92 0 0 0-.692-.613l1.093-1.2zm4.554-3.128v6.711a1.35 1.35 0 0 0 .336.907c.1.11.217.2.352.27.115.059.234.1.357.125h.717l-.009-2.811c0-.393.076-.76.227-1.104.151-.344.356-.645.615-.903.26-.257.563-.461.91-.612a2.775 2.775 0 0 1 1.87-.117c.246.073.476.175.692.306.216.132.414.29.595.476.18.185.338.39.473.616h1.384c.394 0 .764.075 1.109.226a2.902 2.902 0 0 1 1.521 1.519c.152.346.227.715.227 1.107v1.297h1.222a1.333 1.333 0 0 0 .777-.407c.103-.11.183-.241.243-.394.06-.153.089-.324.089-.512v-2.997h1.546v2.997a1.35 1.35 0 0 0 .335.906 1.333 1.333 0 0 0 .773.407h.004a1.333 1.333 0 0 0 .773-.407 1.319 1.319 0 0 0 .336-.906v-2.997h1.546v2.997c0 .21.037.398.113.564a1.26 1.26 0 0 0 .712.677 1.31 1.31 0 0 0 1.364-.258c.121-.113.22-.252.295-.419a1.35 1.35 0 0 0 .113-.564v-2.997h1.562v2.997c0 .21.037.396.11.56a1.253 1.253 0 0 0 .704.673c.153.059.311.091.473.096.162-.005.32-.037.474-.096a1.27 1.27 0 0 0 .708-.673c.075-.164.113-.35.113-.56v-2.997h1.546v2.997a1.35 1.35 0 0 0 .336.906 1.29 1.29 0 0 0 .765.407h1.895c.685-.021 1.095-.067 1.23-.137s.253-.16.356-.27c.102-.11.183-.241.243-.394.06-.153.089-.324.089-.512v-2.997h1.546v2.997a1.35 1.35 0 0 0 .335.906c.1.11.218.2.352.27.135.07.276.116.421.137h4.092c1.251.033 1.945-.067 2.08-.137a1.24 1.24 0 0 0 .594-.664 1.35 1.35 0 0 0 .093-.512v-2.997h1.546v3.03c0 .375-.069.728-.206 1.059a2.892 2.892 0 0 1-1.412 1.498c-.324.159-1.222.313-2.695.286h-4.092v-.008a2.764 2.764 0 0 1-.987-.27 3.55 3.55 0 0 1-.89-.616 3.79 3.79 0 0 1-.886.612c-.316.156-.919.247-1.81.274h-1.895a2.728 2.728 0 0 1-.983-.27 3.58 3.58 0 0 1-.886-.616 3.7 3.7 0 0 1-.975.645 2.82 2.82 0 0 1-1.08.25c-.373 0-.737-.081-1.093-.242a3.82 3.82 0 0 1-.996-.661c-.323.3-.66.52-1.007.657a3.638 3.638 0 0 1-1.073.245 2.825 2.825 0 0 1-1.072-.237 3.476 3.476 0 0 1-1-.657 3.79 3.79 0 0 1-.886.612 2.693 2.693 0 0 1-.995.273v.001a2.764 2.764 0 0 1-.987-.27 3.55 3.55 0 0 1-.89-.616 3.79 3.79 0 0 1-.886.612 2.705 2.705 0 0 1-1 .274h-11.489v.011a2.778 2.778 0 0 1-1.04-.278 2.892 2.892 0 0 1-1.408-1.499 2.728 2.728 0 0 1-.207-1.059v-6.743h1.546zm4.61 4.263c-.162.011-.32.047-.477.11a1.303 1.303 0 0 0-.825 1.245v2.794h1.31c.162 0 .321-.024.478-.072.156-.048.295-.128.417-.238.121-.11.22-.25.295-.419.076-.169.113-.372.113-.608V19.79c0-.237-.037-.44-.113-.612a1.228 1.228 0 0 0-.295-.423 1.181 1.181 0 0 0-.421-.246 1.355 1.355 0 0 0-.482-.073zm3.869 1.523h-.996v1.313c0 .183-.025.383-.077.6-.05.218-.122.45-.214.697h2.638v-1.305c0-.161-.03-.32-.089-.48a1.213 1.213 0 0 0-.263-.418 1.346 1.346 0 0 0-1-.407zm4.099-5.833c.263.253.516.498.756.733.241.235.498.493.77.774a37.93 37.93 0 0 0-.742.733c-.241.244-.503.498-.784.76l-1.487-1.493a150.123 150.123 0 0 1 1.487-1.507zm9.794 0c.263.253.516.498.756.733.241.235.498.493.77.774-.254.244-.501.488-.742.733-.241.244-.502.498-.784.76l-1.487-1.493a150.123 150.123 0 0 1 1.487-1.507zm-3.014 0c.264.253.516.498.757.733.24.235.498.493.77.774l-.376.366-.367.367c-.24.244-.502.498-.784.76l-1.486-1.493a150.169 150.169 0 0 1 1.486-1.507zm6.027 0c.264.253.516.498.757.733.24.235.498.493.77.774l-.376.366-.367.367c-.24.244-.502.498-.784.76l-1.486-1.493a150.123 150.123 0 0 1 1.486-1.507z"/>
                </g>
            </g>
        </g>
    </g>
</svg>
