<svg xmlns="http://www.w3.org/2000/svg" xmlns:xlink="http://www.w3.org/1999/xlink" width="1656" height="152" viewBox="0 0 1656 152">
    <defs>
        <path id="a" d="M0 0h1656v152H0z"/>
        <path id="c" d="M288.415 2.25c.545.506 1.067.996 1.567 1.466.538.51 1.07 1.025 1.596 1.547-.52.482-1.034.97-1.54 1.466a52.369 52.369 0 0 1-1.624 1.521l-3.08-2.987a225.352 225.352 0 0 1 3.08-3.013zm-6.245 0c.546.506 1.069.996 1.568 1.466.539.51 1.07 1.025 1.596 1.547-.52.482-1.034.97-1.54 1.466a52.368 52.368 0 0 1-1.624 1.521l-3.08-2.987a219.828 219.828 0 0 1 3.08-3.013zm12.487 0c.546.506 1.069.996 1.568 1.466.539.51 1.071 1.025 1.596 1.547-.52.482-1.033.97-1.54 1.466a52.37 52.37 0 0 1-1.624 1.521l-3.08-2.987a219.828 219.828 0 0 1 3.08-3.013zm-74.254 9c.546.506 1.069.996 1.568 1.466.54.51 1.071 1.025 1.596 1.547-.52.482-1.033.97-1.54 1.466a52.368 52.368 0 0 1-1.624 1.521l-3.08-2.987a219.836 219.836 0 0 1 3.08-3.013zm-6.243 0c.546.506 1.068.996 1.568 1.466a86.19 86.19 0 0 1 1.596 1.547c-.52.482-1.034.97-1.54 1.466a52.37 52.37 0 0 1-1.624 1.521l-3.08-2.987a219.836 219.836 0 0 1 3.08-3.013zm-18.732 0c.546.506 1.069.996 1.568 1.466.539.51 1.071 1.025 1.596 1.547-.52.482-1.033.97-1.54 1.466a52.37 52.37 0 0 1-1.624 1.521l-3.08-2.987a225.333 225.333 0 0 1 3.08-3.013zM161.223 24c.546.506 1.069.996 1.568 1.466.539.51 1.071 1.025 1.596 1.547-.52.482-1.033.97-1.54 1.466A52.37 52.37 0 0 1 161.223 30l-3.08-2.987a219.826 219.826 0 0 1 3.08-3.013zm-6.244 0c.546.506 1.07.996 1.568 1.466.54.51 1.071 1.025 1.597 1.547-.52.482-1.034.97-1.54 1.466A52.37 52.37 0 0 1 154.98 30l-3.08-2.987A214.59 214.59 0 0 1 154.979 24zm91.29-24c.547.506 1.07.996 1.569 1.466.539.51 1.07 1.025 1.596 1.547-.52.482-1.034.97-1.54 1.466A52.37 52.37 0 0 1 246.27 6l-3.08-2.987A219.828 219.828 0 0 1 246.27 0zm-96.931 2.25c.546.506 1.068.996 1.568 1.466.539.51 1.07 1.025 1.596 1.547-.52.482-1.034.97-1.54 1.466a52.37 52.37 0 0 1-1.624 1.521l-3.08-2.987a219.827 219.827 0 0 1 3.08-3.013zm86.343 18.96a7.368 7.368 0 0 1-1.844-1.233 7.866 7.866 0 0 1-1.836 1.226c-.654.31-1.903.494-3.747.547H211.08v-3.11h17.174c1.42-.043 2.269-.134 2.548-.273.28-.141.526-.32.737-.54a2.42 2.42 0 0 0 .504-.79 2.74 2.74 0 0 0 .184-1.024V10.02h3.203v5.993c0 .376.064.718.193 1.024.226.576.666 1.05 1.233 1.33.279.14.569.23.871.273v.016h3.052c-.178-.454-.324-.92-.437-1.394a5.359 5.359 0 0 1-.15-1.2v-3.046c0-.784.156-1.52.47-2.207a5.827 5.827 0 0 1 1.274-1.804 6.06 6.06 0 0 1 1.886-1.226 5.928 5.928 0 0 1 2.305-.45c.817 0 1.585.15 2.306.45.72.301 1.35.71 1.886 1.226a5.796 5.796 0 0 1 1.274 1.804c.315.696.475 1.448.47 2.207v3.046c0 .366-.053.765-.16 1.2-.106.435-.254.9-.444 1.394h16.95c.47 0 .881-.067 1.233-.201.352-.134.64-.314.863-.54.224-.225.392-.48.504-.765.112-.285.167-.572.167-.863a2.422 2.422 0 0 0-1.56-2.27c-.345-.141-.748-.21-1.206-.21h-9.239a4.457 4.457 0 0 1-1.3-.122 3.113 3.113 0 0 1-1.073-.483 2.487 2.487 0 0 1-.729-.806 2.208 2.208 0 0 1-.268-1.104V11.1c0-.075.005-.15.017-.225.039-.313.12-.62.242-.911a5.56 5.56 0 0 1 .948-1.498c.201-.23.414-.47.637-.718.057-.073.113-.148.168-.224l2.414-2.644c.805-.88 1.61-1.766 2.414-2.658.448.375.856.717 1.225 1.023.369.306.766.63 1.19.975l-5.851 6.478h9.272c.85 0 1.638.147 2.364.442a6.01 6.01 0 0 1 1.878 1.184 5.482 5.482 0 0 1 1.241 1.733c.302.66.453 1.35.453 2.07 0 .623-.213 1.467-.637 2.53h2.204c.301-.043.582-.167.86-.306.28-.14.526-.32.738-.54.213-.22.38-.483.504-.79.122-.305.184-.647.184-1.022v-5.995h3.203v5.995a2.61 2.61 0 0 0 .846 1.965c.252.225.54.398.863.516a2.837 2.837 0 0 0 1.978 0 2.581 2.581 0 0 0 1.711-2.48l.001-5.996h3.22v5.995c0 .419.075.792.225 1.12.279.62.805 1.106 1.46 1.345.318.118.644.183.98.193a3.08 3.08 0 0 0 .981-.193 2.598 2.598 0 0 0 1.467-1.345c.156-.328.235-.701.235-1.12v-5.995h3.203v6.06c0 .761-.16 1.479-.479 2.15a5.937 5.937 0 0 1-1.282 1.773 6.48 6.48 0 0 1-1.862 1.232 6.323 6.323 0 0 1-2.23.532 6.258 6.258 0 0 1-2.279-.507 7.58 7.58 0 0 1-2.046-1.282c-.65.602-1.339 1.037-2.071 1.305a8.11 8.11 0 0 1-2.222.484 6.097 6.097 0 0 1-2.23-.475 6.97 6.97 0 0 1-2.062-1.313 7.798 7.798 0 0 1-1.844 1.224c-.66.312-1.337.51-2.052.564h-38.253a5.887 5.887 0 0 1-2.046-.54zm7.974-4.076c.15.328.352.604.603.83.252.224.539.4.863.524.315.12.65.189.989.2h-.016c.347.022.682-.019 1.006-.12.324-.102.615-.263.873-.484.256-.22.463-.502.62-.845.155-.344.234-.753.234-1.226v-2.915c0-.474-.078-.881-.235-1.226a2.458 2.458 0 0 0-.612-.845 2.467 2.467 0 0 0-.872-.491 2.9 2.9 0 0 0-.997-.146 3.36 3.36 0 0 0-.99.218c-.318.12-.611.298-.862.523a2.495 2.495 0 0 0-.604.83 2.683 2.683 0 0 0-.227 1.136v2.916c0 .42.075.793.227 1.12zm10.52-8.677a4.16 4.16 0 0 1 .276-1c.129-.3.285-.582.47-.846.183-.262.388-.52.612-.773l.687-.781 4.091-4.528 1.408 1.21-7.41 8.2a3.28 3.28 0 0 1-.135-1.482zm-49.04 7.493c0 .504-.01 1.022-.034 1.554a12.178 12.178 0 0 1-.166 1.571 8.322 8.322 0 0 1-.395 1.475 4.277 4.277 0 0 1-.713 1.249c-.39-.226-.748-.425-1.072-.596a66.48 66.48 0 0 1-1.04-.565c.067-.344.12-.72.16-1.128.038-.408.058-.854.058-1.338v-.354c0-.14-.011-.268-.033-.386V2.575h3.235V15.95zm-43.59 2.433c.278-.141.525-.32.737-.54.212-.22.38-.484.503-.79a2.72 2.72 0 0 0 .184-1.024v-5.993h3.203v5.993c0 .376.064.718.193 1.024.226.576.666 1.05 1.233 1.33.279.14.57.23.871.273h15.321c.47 0 .88-.067 1.233-.201.351-.134.64-.314.863-.54.223-.225.391-.48.504-.765.111-.285.167-.572.167-.863a2.438 2.438 0 0 0-1.56-2.27c-.346-.141-.748-.21-1.207-.21h-9.239a4.46 4.46 0 0 1-1.299-.122 3.113 3.113 0 0 1-1.073-.483 2.487 2.487 0 0 1-.73-.806 2.208 2.208 0 0 1-.268-1.104V11.1c0-.075.006-.15.017-.225.04-.313.12-.62.243-.911a5.56 5.56 0 0 1 .948-1.498c.2-.23.413-.47.637-.718.058-.073.114-.148.168-.224l2.414-2.644c.805-.88 1.61-1.766 2.415-2.658.446.375.855.717 1.223 1.023.369.306.766.63 1.191.975l-5.852 6.478h9.272c.85 0 1.639.147 2.365.442.726.296 1.353.69 1.877 1.184a5.482 5.482 0 0 1 1.241 1.733c.302.66.453 1.35.453 2.07 0 .623-.213 1.467-.637 2.53h9.409v3.094h-30.097v.016a5.887 5.887 0 0 1-2.046-.54 7.369 7.369 0 0 1-1.844-1.232 7.866 7.866 0 0 1-1.835 1.224c-.655.312-1.904.494-3.748.548v-.016h-8.786c-.135.687-.3 1.322-.495 1.901a6.025 6.025 0 0 1-.713 1.482c-.592.839-1.417 1.518-2.472 2.04-1.057.52-2.362.78-3.917.78a14.35 14.35 0 0 1-2.598-.241V24.73c.398.13.807.225 1.224.282a9.12 9.12 0 0 0 1.257.09c.537 0 1.06-.06 1.568-.179a4.77 4.77 0 0 0 1.392-.555c.42-.253.782-.588 1.064-.982.291-.403.493-.894.604-1.475.057-.763.104-1.558.143-2.385.039-.827.058-1.692.058-2.594v-.677c0-.257-.005-.488-.016-.692v-5.56h3.236v6.752c0 .204-.003.416-.01.637l-.015.66c-.006.22-.015.421-.025.604h8.5c1.421-.043 2.27-.134 2.55-.273zM93.48 23.942c.546.506 1.069.996 1.568 1.466.539.51 1.071 1.025 1.596 1.547-.52.482-1.033.97-1.54 1.466a52.37 52.37 0 0 1-1.624 1.521l-3.08-2.987a219.827 219.827 0 0 1 3.08-3.013zm-6.244 0c.547.506 1.07.996 1.569 1.466l.803.769.793.778c-.52.482-1.034.97-1.54 1.466a52.37 52.37 0 0 1-1.624 1.521l-3.08-2.987a214.59 214.59 0 0 1 3.079-3.013zm-6.357 0c.547.506 1.07.996 1.57 1.466.538.51 1.07 1.025 1.595 1.547-.52.482-1.033.97-1.54 1.466a52.37 52.37 0 0 1-1.624 1.521l-3.08-2.987a214.59 214.59 0 0 1 3.08-3.013zM105.7 9.545c.707 0 1.379.114 2.014.34a4.335 4.335 0 0 1 1.67 1.078c.48.493.86 1.13 1.142 1.91.28.781.422 1.736.422 2.865l-.001 2.721 2.722.012c.302-.043.582-.167.861-.306.28-.14.526-.319.737-.54.213-.22.381-.483.504-.79.123-.305.185-.647.185-1.022V9.818h3.202v5.995a2.61 2.61 0 0 0 .846 1.965c.252.225.54.398.864.516a2.837 2.837 0 0 0 1.978 0 2.581 2.581 0 0 0 1.711-2.48V9.817h3.22v5.995c0 .419.075.792.225 1.12.28.62.805 1.106 1.46 1.345.318.118.645.183.98.193a3.08 3.08 0 0 0 .981-.193 2.598 2.598 0 0 0 1.467-1.345c.157-.328.235-.701.235-1.12V9.818h3.203v6.06c0 .761-.16 1.479-.478 2.15a5.937 5.937 0 0 1-1.283 1.773 6.48 6.48 0 0 1-1.862 1.232 6.323 6.323 0 0 1-2.23.532 6.258 6.258 0 0 1-2.279-.507 7.58 7.58 0 0 1-2.046-1.282c-.65.602-1.339 1.037-2.07 1.305a8.11 8.11 0 0 1-2.222.484 6.097 6.097 0 0 1-2.23-.475 6.97 6.97 0 0 1-2.063-1.313 7.798 7.798 0 0 1-1.844 1.224c-.66.312-1.336.51-2.052.564h-2.85a8.725 8.725 0 0 1-.403 1.507 7.748 7.748 0 0 1-1.515 2.54 7.171 7.171 0 0 1-2.42 1.743c-.96.43-2.031.646-3.219.646h-3.154l-.186-3.358h3.184c.792 0 1.474-.107 2.046-.324.573-.216 1.047-.508 1.423-.878.377-.374.971-1.25 1.014-1.805h-1.89c-1.083 0-1.968-.114-2.655-.339-.687-.225-1.229-.56-1.624-1.002-.397-.44-.672-.98-.828-1.617-.156-.636-.235-2.446-.235-3.248 0-.801.115-1.556.344-2.264a5.493 5.493 0 0 1 1.015-1.864 4.91 4.91 0 0 1 1.672-1.278c.666-.32 1.436-.479 2.311-.479zm-28.428 0v8.653H96.26v3.094H77.178a9.302 9.302 0 0 1-1.154 3.263c-.567.98-1.712 1.911-2.767 2.433-.981.483-2.147.533-3.553.538h-2.962v-3.244h2.496c.537 0 1.045.03 1.553-.089a4.77 4.77 0 0 0 1.392-.555c.42-.254.783-.588 1.064-.982.291-.404.493-.895.604-1.475.057-.763.104-1.286.143-2.112.039-.827.058-1.693.058-2.594v-.677c0-.258-.005-.489-.016-.693v-5.56h3.236zm-30.414 0v10.89a9.336 9.336 0 0 1-1.249 4.12c-.567.98-1.712 1.911-2.767 2.433-.981.483-2.147.533-3.553.538h-2.962v-3.244h2.496c.537 0 1.045.03 1.553-.089a4.77 4.77 0 0 0 1.392-.555c.42-.254.783-.588 1.065-.982.29-.404.492-.895.604-1.475.056-.763.103-1.286.142-2.112.039-.827.058-1.693.058-2.594v-.677c0-.258-.004-.489-.016-.693v-5.56h3.237zM28.714 0c.446.375.855.717 1.224 1.023.368.306.766.63 1.19.975l-5.852 6.478h9.272c.85 0 1.639.147 2.365.442.726.296 1.353.69 1.877 1.184a5.482 5.482 0 0 1 1.242 1.733c.301.66.452 1.35.452 2.07 0 .623-.213 1.467-.637 2.53-1.044 2.063-2.516 3.094-4.416 3.094H19.16v.016a5.887 5.887 0 0 1-2.046-.54 7.369 7.369 0 0 1-1.845-1.232 7.866 7.866 0 0 1-1.835 1.224c-.618.294-1.403.41-3.041.467l-.299.01H6.386c-.46 0-.861.069-1.208.21a2.438 2.438 0 0 0-1.56 2.27c0 .29.056.577.168.862.112.285.28.54.504.765.223.226.511.406.863.54.293.112.628.178 1.003.196l.23.006H30l.001 3.094H5.435c-1.899 0-3.37-1.031-4.415-3.094-.424-1.063-.638-1.907-.638-2.53 0-.72.152-1.41.453-2.07a5.482 5.482 0 0 1 1.241-1.733 6.005 6.005 0 0 1 1.878-1.184 6.113 6.113 0 0 1 2.049-.435l.316-.007h3.168c1.42-.043 2.47-.063 2.748-.202.28-.141.526-.32.738-.54.213-.22.38-.484.503-.79a2.72 2.72 0 0 0 .185-1.024V7.815h3.202v5.993c0 .376.064.718.193 1.024.227.576.666 1.05 1.233 1.33.28.14.57.23.872.273h15.32c.47 0 .88-.067 1.233-.201.352-.134.64-.314.863-.54.224-.225.391-.48.504-.765.111-.285.168-.572.168-.863a2.438 2.438 0 0 0-1.56-2.27c-.347-.141-.749-.21-1.208-.21h-9.238a4.46 4.46 0 0 1-1.3-.122 3.113 3.113 0 0 1-1.073-.483 2.487 2.487 0 0 1-.73-.806 2.208 2.208 0 0 1-.268-1.104v-.193c0-.075.006-.15.018-.225.038-.313.12-.619.242-.911a5.56 5.56 0 0 1 .948-1.498c.201-.23.413-.47.637-.717.058-.074.114-.15.168-.225l2.414-2.644c.805-.88 1.61-1.766 2.415-2.658zm24.64 0v15.539c0 .376.065.717.194 1.024.226.575.665 1.049 1.232 1.329.28.14.57.23.872.274v.016h3.051c-.177-.455-.323-.92-.436-1.394a5.359 5.359 0 0 1-.15-1.2v-3.046c0-.784.156-1.52.47-2.207A5.827 5.827 0 0 1 59.86 8.53a6.06 6.06 0 0 1 1.886-1.225 5.928 5.928 0 0 1 2.306-.45c.816 0 1.584.15 2.306.45.72.3 1.35.71 1.886 1.225a5.796 5.796 0 0 1 1.274 1.805c.315.695.475 1.447.47 2.207v3.046c0 .365-.132 2.097-1.074 3.55-.943 1.454-2.411 2.137-4.042 2.137h-9.22c-1.209 0-2.963-.432-3.996-1.73-1.034-1.298-1.504-2.682-1.504-4.006V0h3.203zm10.541 9.956a3.36 3.36 0 0 0-.989.217c-.32.12-.612.298-.863.523a2.495 2.495 0 0 0-.604.831 2.683 2.683 0 0 0-.227 1.135v2.917c.001.419.076.792.227 1.12.15.328.352.604.603.83.252.225.54.4.863.524.315.121.65.19.989.2h-.015c.346.022.681-.018 1.005-.12.324-.102.615-.263.873-.483.256-.22.463-.503.62-.846.155-.344.234-.753.234-1.225v-2.916c0-.473-.078-.88-.235-1.225a2.458 2.458 0 0 0-.612-.846 2.467 2.467 0 0 0-.872-.49 2.9 2.9 0 0 0-.997-.146zm41.679 2.856c-.687 0-1.218.205-1.592.616-.375.411-.594 1.222-.594 2.002 0 .72-.06 2.167.262 2.454.323.288 1.217.363 2.174.363h2.061v-2.539c0-1.068-.203-1.818-.608-2.25-.406-.43-.974-.646-1.703-.646zM175.693.529l1.408 1.21-7.412 8.2a3.274 3.274 0 0 1-.134-1.483c.056-.365.148-.697.276-.998.129-.301.285-.583.47-.847.185-.262.388-.52.611-.773.224-.252.454-.513.689-.781l4.092-4.528zM15.236.682c.546.506 1.068.995 1.568 1.466.538.509 1.07 1.025 1.596 1.547-.52.482-1.034.97-1.54 1.466a52.37 52.37 0 0 1-1.624 1.52l-3.08-2.986a219.826 219.826 0 0 1 3.08-3.013zm-6.245 0c.547.506 1.07.995 1.569 1.466l.803.769.793.778c-.52.482-1.034.97-1.54 1.466a52.37 52.37 0 0 1-1.624 1.52l-3.08-2.986A214.589 214.589 0 0 1 8.992.682z"/>
    </defs>
    <g fill="none" fill-rule="evenodd">
        <mask id="b" fill="#fff">
            <use xlink:href="#a"/>
        </mask>
        <g mask="url(#b)" opacity=".5">
            <path d="M80 0h1497v152H80z"/>
            <g fill="#FEFEFE">
                <path fill-opacity=".35" d="M1047.233-4.25l-.688 15.504c-.09 2.05 1.841 4.154 3.895 4.244l11.927.525c1.964.088 3.724-1.705 3.823-3.903l.688-15.503-19.645-.866zm26.63 18.886c-.237 5.343-4.758 9.424-10.186 9.185l-15.738-.695c-5.459-.24-9.472-4.605-9.23-10.04l1.13-25.4 35.152 1.55-1.127 25.4z"/>
                <path fill-opacity=".49" d="M913.127 13.699l30.687-16.616 3.428 7.241-30.687 16.616zM886.033.698l1.69 9.222L872.864 26 853.12 15.414l-1.69-9.223 19.744 10.587z"/>
                <path fill-opacity=".42" d="M985.67 18.617l.001-.042-.02-.001.018.043zm6.222-16.346c-2.078-.143-4.278 1.593-4.433 3.5l-1.017 12.558-.028.325-.125 1.563-.01-.002-.735-.05-7.09-.484.15-1.851-.007-.002 1.184-14.594c.41-5.065 4.971-8.669 10.487-8.292l17.945 1.224-.582 7.18-15.739-1.075z"/>
                <path fill-opacity=".28" d="M615.354-4.25l-.689 15.504c-.09 2.05 1.842 4.154 3.895 4.244l11.928.525c1.963.088 3.724-1.705 3.822-3.903L635-3.383l-19.645-.866zm26.63 18.886c-.238 5.343-4.758 9.424-10.186 9.185l-15.738-.695c-5.46-.24-9.472-4.605-9.23-10.04l1.129-25.4 35.153 1.55-1.128 25.4z"/>
                <path fill-opacity=".07" d="M1296.925-4.25l-.689 15.504c-.09 2.05 1.842 4.154 3.895 4.244l11.928.525c1.963.088 3.724-1.705 3.822-3.903l.689-15.503-19.645-.866zm26.63 18.886c-.238 5.343-4.758 9.424-10.186 9.185l-15.738-.695c-5.459-.24-9.472-4.605-9.23-10.04l1.129-25.4 35.153 1.55-1.127 25.4z"/>
                <path fill-opacity=".49" d="M826.751 15.077l-8.493 6.586-24.73-4.173-.166-23.219 8.494-6.585.166 23.218z"/>
                <path fill-opacity=".42" d="M741.423-7.977l17.098 30.297-6.854 3.68-17.098-30.297z"/>
                <path d="M481.248 13.699l30.687-16.616 3.427 7.241-30.687 16.616z" opacity=".14"/>
                <path fill-opacity=".21" d="M1162.819 13.699l30.687-16.616 3.428 7.241-30.688 16.616z"/>
                <path d="M454.88.698l1.689 9.222L441.712 26l-19.746-10.586-1.69-9.223 19.744 10.587z" opacity=".07"/>
                <path fill-opacity=".28" d="M1136.45.698l1.69 9.222L1123.283 26l-19.746-10.586-1.69-9.223 19.744 10.587z"/>
                <path fill-opacity=".21" d="M553.064 18.617l.002-.042-.02-.001.018.043zm6.223-16.346c-2.078-.143-4.278 1.593-4.434 3.5l-1.016 12.558-.028.325-.125 1.563-.01-.002-.736-.05-7.09-.484.152-1.851-.008-.002 1.183-14.594c.41-5.065 4.972-8.669 10.488-8.292l17.945 1.224-.582 7.18-15.739-1.075z"/>
                <path fill-opacity=".17" d="M1234.635 18.617l.002-.042-.02-.001.018.043zm6.223-16.346c-2.078-.143-4.278 1.593-4.434 3.5l-1.016 12.558-.028.325-.125 1.563-.01-.002-.736-.05-7.09-.484.152-1.851-.008-.002 1.183-14.594c.41-5.065 4.972-8.669 10.488-8.292l17.945 1.224-.582 7.18-15.739-1.075z"/>
                <path fill-opacity=".35" d="M674.098 10.572l.032-.033-.014-.014-.018.047zM690.17.99c-1.51-1.397-4.404-1.325-5.836.143l-9.44 9.676-.245.25-1.174 1.205-.006-.006-.533-.494-5.145-4.759 1.39-1.427-.004-.006 10.97-11.245c3.805-3.899 9.812-4.052 13.816-.347l13.023 12.043-5.394 5.53L690.17.99z"/>
                <g opacity=".5">
                    <path fill-opacity=".42" d="M989.384 43.507l-6.854 14.109c-.904 1.865 0 4.607 1.826 5.53l10.597 5.358c1.744.883 4.059-.063 5.03-2.064l6.852-14.11-17.451-8.823zm16.541 28.401c-2.361 4.864-8.098 6.806-12.919 4.369l-13.981-7.07c-4.85-2.453-6.733-8.143-4.33-13.09L985.923 33l31.228 15.794-11.226 23.114z"/>
                    <path fill-opacity=".35" d="M1038.9 55.398l34.619-7.384 1.63 7.631-34.618 7.384z"/>
                    <path fill-opacity=".49" d="M915.657 52.335l5.169-9.506 23.014-4.11 8.065 23.383-5.168 9.506-8.066-23.38zM857.703 55.383l.042-.02-.006-.017-.036.037zm18.413-2.938c-.84-1.87-3.518-2.889-5.396-2.052l-12.379 5.511-.32.143-1.542.684-.004-.006-.297-.662-2.868-6.38 1.827-.812-.004-.006 14.389-6.404c4.991-2.221 10.546-.112 12.778 4.851l7.258 16.144-7.076 3.148-6.366-14.159z"/>
                    <path fill-opacity=".21" d="M558.45 43.507l-6.903 14.109c-.91 1.865 0 4.607 1.84 5.53l10.674 5.358c1.757.883 4.089-.063 5.068-2.064l6.902-14.11-17.58-8.823zm16.664 28.401c-2.379 4.864-8.158 6.806-13.014 4.369l-14.084-7.07c-4.886-2.453-6.782-8.143-4.362-13.09L554.964 33l31.459 15.794-11.309 23.114z"/>
                    <path fill-opacity=".17" d="M1239.99 43.507l-6.904 14.109c-.91 1.865 0 4.607 1.84 5.53l10.674 5.358c1.757.883 4.089-.063 5.068-2.064l6.902-14.11-17.58-8.823zm16.663 28.401c-2.379 4.864-8.158 6.806-13.014 4.369l-14.084-7.07c-4.886-2.453-6.782-8.143-4.362-13.09L1236.503 33l31.459 15.794-11.309 23.114z"/>
                    <path fill-opacity=".42" d="M733.684 53.52l7.811 13.281c1.033 1.756 3.755 2.457 5.49 1.415l10.072-6.048c1.659-.997 2.134-3.445 1.027-5.33l-7.81-13.28-16.59 9.962zm32.055 1.24c2.695 4.58 1.187 10.434-3.394 13.187l-13.292 7.98c-4.608 2.77-10.26 1.318-12.998-3.34l-12.798-21.76L752.943 33l12.796 21.76z"/>
                    <path fill-opacity=".35" d="M684 77.328l-9.889-4.605-5.434-22.318 23.164-8.998 9.892 4.605-23.164 8.998z"/>
                    <path fill-opacity=".28" d="M607.947 55.038l34.507-7.517 1.624 7.769-34.505 7.517z"/>
                    <path fill-opacity=".07" d="M1289.486 55.038l34.507-7.517 1.624 7.769-34.505 7.517z"/>
                    <path fill-opacity=".49" d="M793.98 62.094l32.097-17.63 4.034 6.83-32.096 17.627z"/>
                    <path d="M485.719 51.955l5.152-9.499 22.94-4.106 8.038 23.365-5.15 9.499-8.04-23.363z" opacity=".14"/>
                    <path fill-opacity=".21" d="M1167.258 51.955l5.152-9.499 22.94-4.106 8.038 23.365-5.15 9.499-8.04-23.363z"/>
                    <path d="M427.062 55.32l.041-.02-.006-.018-.035.037zm18.353-2.962c-.838-1.885-3.507-2.911-5.378-2.068l-12.34 5.554-.32.144-1.535.69-.004-.007-.297-.667-2.858-6.429 1.82-.82-.003-.005 14.342-6.455c4.976-2.238 10.512-.112 12.737 4.89l7.234 16.271-7.053 3.172-6.345-14.27z" opacity=".07"/>
                    <path fill-opacity=".28" d="M1108.6 55.32l.042-.02-.006-.018-.035.037zm18.354-2.962c-.838-1.885-3.507-2.911-5.378-2.068l-12.34 5.554-.32.144-1.535.69-.004-.007-.297-.667-2.858-6.429 1.82-.82-.004-.005 14.343-6.455c4.975-2.238 10.512-.112 12.737 4.89l7.234 16.271-7.053 3.172-6.345-14.27z"/>
                </g>
                <g opacity=".2">
                    <path fill-opacity=".35" d="M1060.144 107.499l-3.736 8.658-21.593 6.433-10.79-18.604 3.733-8.656 10.793 18.601z"/>
                    <path fill-opacity=".49" d="M853.963 126.376l-5.924-34.338 7.91-1.252 5.923 34.337zM950.484 102.902l1.302 7.047-7.15 1.282-1.303-7.045z"/>
                    <path fill-opacity=".35" d="M710.76 94.997l-15.07 1.232c-1.992.162-3.787 2.252-3.623 4.213l.957 11.38c.158 1.873 2.108 3.324 4.244 3.149l15.07-1.232-1.578-18.742zm-14.981 27.56c-5.194.426-9.694-3.368-10.13-8.546l-1.264-15.016c-.439-5.208 3.288-9.545 8.572-9.978L717.645 87l2.824 33.54-24.69 2.017z"/>
                    <path fill-opacity=".28" d="M629.019 107.499l-3.736 8.658-21.593 6.433-10.79-18.604 3.733-8.656 10.793 18.601z"/>
                    <path fill-opacity=".07" d="M1309.987 107.499l-3.736 8.658-21.593 6.433-10.79-18.604 3.733-8.656 10.793 18.601z"/>
                    <path d="M423.607 126.376l-5.924-34.338 7.909-1.252 5.924 34.337z" opacity=".07"/>
                    <path fill-opacity=".28" d="M1104.575 126.376l-5.924-34.338 7.909-1.252 5.924 34.337z"/>
                    <path fill-opacity=".49" d="M784.408 110.931l.017-.04-.017-.01v.05zm11.714-14.381c-1.875-.835-4.543.18-5.38 2.047l-5.514 12.3-.144.32-.684 1.529-.008-.004-.663-.295-6.391-2.847.814-1.813-.006-.002 6.409-14.295c2.222-4.96 7.758-7.07 12.73-4.855l16.172 7.203-3.152 7.03-14.183-6.318z"/>
                    <path d="M519.359 102.902l1.302 7.047-7.151 1.282-1.302-7.045z" opacity=".14"/>
                    <path fill-opacity=".21" d="M1200.327 102.902l1.302 7.047-7.15 1.282-1.303-7.045z"/>
                </g>
            </g>
        </g>
        <rect width="820" height="64" x="382" y="25" fill="#000" mask="url(#b)" opacity=".1" rx="13"/>
        <rect width="403" height="53" x="792.5" y="30.5" fill="#FFF" stroke="#FFF" mask="url(#b)" rx="7"/>
        <g fill="#EF394E" fill-rule="nonzero" mask="url(#b)">
            <path d="M878.807 66c.528.507 1.032.995 1.514 1.466.482.47.995.986 1.54 1.548a75.86 75.86 0 0 0-1.486 1.466c-.481.488-1.004.995-1.568 1.52l-2.972-2.986A215.932 215.932 0 0 1 878.808 66zm-6.027 0c.527.507 1.032.995 1.514 1.466.482.47.995.986 1.54 1.548a75.86 75.86 0 0 0-1.486 1.466c-.481.488-1.004.995-1.568 1.52l-2.972-2.986A215.932 215.932 0 0 1 872.78 66zm30.252-21.78c.431.377.825.718 1.181 1.024.356.306.74.631 1.15.975l-5.65 6.477h8.951c.82 0 1.581.148 2.283.443.701.296 1.305.69 1.813 1.185a5.482 5.482 0 0 1 1.197 1.732c.292.66.437 1.35.437 2.07 0 .624-.205 1.467-.615 2.53h11.752v3.094h-39.729v.016a5.528 5.528 0 0 1-1.974-.54 7.101 7.101 0 0 1-1.78-1.232 7.58 7.58 0 0 1-1.773 1.224c-.631.312-1.837.494-3.618.548v-.016h-9.816c-.13.688-.289 1.321-.477 1.901a6.116 6.116 0 0 1-.688 1.483c-.572.838-1.368 1.517-2.388 2.038-1.02.521-2.28.782-3.78.782a13.386 13.386 0 0 1-2.508-.242V66.73c.378.129.772.223 1.182.282.41.059.814.089 1.214.089.517 0 1.022-.06 1.513-.178a4.514 4.514 0 0 0 1.343-.556c.405-.252.748-.58 1.028-.983.28-.402.475-.894.583-1.474.054-.763.1-1.557.137-2.385.038-.827.057-1.692.057-2.594v-.677c0-.257-.005-.488-.016-.692v-5.56h3.124v6.752c0 .204-.003.416-.008.636l-.016.661c-.006.22-.014.422-.025.604h9.541c1.37-.043 2.19-.134 2.46-.274s.508-.32.713-.54c.205-.22.367-.483.485-.789a2.81 2.81 0 0 0 .178-1.023v-5.994h3.092v5.994c0 .376.062.717.186 1.023a2.48 2.48 0 0 0 1.19 1.33c.27.139.55.23.841.273H908.6c.453 0 .85-.067 1.19-.201.34-.134.617-.314.833-.54.216-.226.378-.48.486-.765.107-.285.161-.572.161-.862 0-.312-.056-.615-.17-.91a2.377 2.377 0 0 0-1.335-1.362 3.007 3.007 0 0 0-1.165-.21h-8.919a4.17 4.17 0 0 1-1.254-.12 2.966 2.966 0 0 1-1.036-.484 2.46 2.46 0 0 1-.704-.806 2.271 2.271 0 0 1-.26-1.104V53.1c0-.075.006-.15.017-.225.043-.333.121-.637.235-.91a5.594 5.594 0 0 1 .914-1.5c.194-.23.4-.47.615-.716a6.474 6.474 0 0 0 .162-.226l2.33-2.643c.778-.88 1.555-1.767 2.332-2.658zm28.842.355V57.95c0 .505-.011 1.023-.033 1.555a12.6 12.6 0 0 1-.161 1.571 8.56 8.56 0 0 1-.38 1.475 4.319 4.319 0 0 1-.689 1.248 33.313 33.313 0 0 0-1.036-.596c-.313-.172-.647-.36-1.003-.564.065-.344.116-.72.154-1.128.037-.408.056-.854.056-1.337v-.355c0-.14-.01-.268-.032-.386V44.575h3.124zm62.185-.354c.432.376.826.717 1.182 1.023.356.306.739.631 1.149.975l-5.649 6.477h8.95c.821 0 1.582.148 2.283.443.702.296 1.306.69 1.813 1.185a5.482 5.482 0 0 1 1.198 1.732c.291.66.437 1.35.437 2.07 0 .624-.205 1.467-.615 2.53h2.127c.292-.043.562-.166.832-.306.27-.14.507-.32.712-.54.205-.22.367-.483.486-.79a2.81 2.81 0 0 0 .178-1.022v-5.995h3.091v5.995c0 .419.076.794.227 1.127.15.333.348.613.59.838.243.226.521.398.834.516.313.118.631.177.955.177.324 0 .642-.059.955-.177.313-.118.59-.29.834-.516.242-.225.44-.505.59-.838a2.7 2.7 0 0 0 .227-1.127v-5.995h3.108v5.995c0 .419.073.792.218 1.12a2.506 2.506 0 0 0 1.408 1.345c.308.118.624.183.947.193.324-.01.64-.075.947-.193a2.541 2.541 0 0 0 1.417-1.346c.15-.327.226-.7.226-1.12v-5.994h3.092v6.059c0 .763-.154 1.48-.462 2.151a5.935 5.935 0 0 1-1.238 1.773 6.243 6.243 0 0 1-1.797 1.232 5.93 5.93 0 0 1-2.152.532 5.865 5.865 0 0 1-2.202-.508 7.284 7.284 0 0 1-1.974-1.28c-.626.601-1.292 1.036-2 1.305a7.598 7.598 0 0 1-2.144.483 5.712 5.712 0 0 1-2.153-.475 6.704 6.704 0 0 1-1.99-1.314 7.513 7.513 0 0 1-1.781 1.225 5.43 5.43 0 0 1-1.98.564h-36.927a5.528 5.528 0 0 1-1.975-.54 7.101 7.101 0 0 1-1.78-1.232 7.58 7.58 0 0 1-1.772 1.224c-.632.312-1.838.494-3.618.548h-23.25v-3.11h23.25c1.37-.043 2.19-.134 2.46-.274s.507-.32.712-.54c.205-.22.367-.483.486-.79a2.81 2.81 0 0 0 .178-1.022V52.02h3.092v5.994c0 .376.062.717.186 1.023a2.48 2.48 0 0 0 1.19 1.33c.27.139.55.23.841.273v.016h2.946a10.77 10.77 0 0 1-.42-1.394 5.542 5.542 0 0 1-.147-1.2v-3.045c0-.785.152-1.52.454-2.208a5.83 5.83 0 0 1 1.23-1.805 5.833 5.833 0 0 1 1.82-1.224 5.55 5.55 0 0 1 2.226-.451c.788 0 1.53.15 2.226.45.696.302 1.303.71 1.82 1.225a5.83 5.83 0 0 1 1.231 1.805c.302.688.453 1.423.453 2.208v3.045c0 .365-.051.765-.154 1.2-.102.436-.245.9-.428 1.394h16.362c.453 0 .85-.067 1.19-.201.34-.134.618-.314.833-.54.216-.226.378-.48.486-.765.108-.285.162-.572.162-.862 0-.312-.057-.615-.17-.91a2.377 2.377 0 0 0-1.335-1.362 3.007 3.007 0 0 0-1.166-.21h-8.918a4.17 4.17 0 0 1-1.255-.12 2.966 2.966 0 0 1-1.036-.484 2.46 2.46 0 0 1-.704-.806 2.271 2.271 0 0 1-.259-1.104V53.1c0-.075.006-.15.016-.225.044-.333.122-.637.235-.91a5.594 5.594 0 0 1 .915-1.5c.194-.23.399-.47.615-.716a6.471 6.471 0 0 0 .162-.226l2.33-2.643a588.45 588.45 0 0 0 2.331-2.658zm-15.958 8.17a3.157 3.157 0 0 0-.955.217c-.313.123-.59.298-.833.523a2.506 2.506 0 0 0-.583.83 2.772 2.772 0 0 0-.219 1.136v2.917c0 .419.073.792.219 1.12.146.327.34.604.583.83.242.225.52.4.833.523.313.124.631.19.955.201h-.016c.334.022.658-.018.971-.12.313-.102.594-.264.842-.484.248-.22.448-.502.599-.846.15-.343.226-.752.226-1.224v-2.917c0-.472-.075-.88-.226-1.224a2.456 2.456 0 0 0-.591-.846 2.362 2.362 0 0 0-.842-.492 2.71 2.71 0 0 0-.963-.145zm-31.489.859c.527.507 1.032.995 1.514 1.466.482.47.995.986 1.54 1.548a75.86 75.86 0 0 0-1.486 1.466c-.481.488-1.004.995-1.568 1.52l-2.972-2.986a215.94 215.94 0 0 1 2.973-3.014zm-6.027 0c.527.507 1.032.995 1.514 1.466.482.47.995.986 1.54 1.548a75.86 75.86 0 0 0-1.486 1.466c-.482.488-1.004.995-1.568 1.52l-2.973-2.986a215.936 215.936 0 0 1 2.973-3.014zm-18.081 0c.527.507 1.032.995 1.513 1.466.482.47.996.986 1.541 1.548a75.86 75.86 0 0 0-1.486 1.466c-.482.488-1.005.995-1.568 1.52l-2.973-2.986a215.932 215.932 0 0 1 2.973-3.014zm69.305-10.721l1.36 1.208-7.154 8.202a3.386 3.386 0 0 1-.13-1.482c.054-.366.143-.699.267-1 .124-.3.275-.582.453-.845.179-.264.375-.521.591-.774.216-.252.437-.513.664-.781l3.95-4.528zm-91.027 0l1.36 1.208-7.155 8.202a3.386 3.386 0 0 1-.13-1.482c.055-.366.144-.699.268-1 .124-.3.275-.582.453-.845.178-.264.375-.521.59-.774.217-.252.438-.513.664-.781l3.95-4.528zm118.155 1.721c.528.507 1.032.995 1.514 1.466.482.47.995.986 1.54 1.548a75.86 75.86 0 0 0-1.485 1.466c-.482.488-1.005.995-1.569 1.52l-2.972-2.986a215.91 215.91 0 0 1 2.973-3.014zm-6.027 0c.528.507 1.032.995 1.514 1.466.482.47.995.986 1.54 1.548a75.86 75.86 0 0 0-1.486 1.466c-.481.488-1.004.995-1.568 1.52l-2.972-2.986a215.953 215.953 0 0 1 2.973-3.014zm12.055 0c.527.507 1.031.995 1.513 1.466.482.47.996.986 1.541 1.548a75.86 75.86 0 0 0-1.486 1.466c-.482.488-1.005.995-1.568 1.52l-2.973-2.986a215.932 215.932 0 0 1 2.973-3.014zM866 44.25c.527.507 1.032.995 1.513 1.466.482.47.996.986 1.541 1.548a75.86 75.86 0 0 0-1.486 1.466c-.482.488-1.005.995-1.568 1.52l-2.973-2.986A215.932 215.932 0 0 1 866 44.25zM978.254 42c.528.507 1.032.995 1.514 1.466.482.47.996.986 1.54 1.548a75.86 75.86 0 0 0-1.485 1.466c-.482.488-1.005.995-1.569 1.52l-2.972-2.986A215.91 215.91 0 0 1 978.255 42zM1124.412 66c.527.507 1.031.995 1.513 1.466.482.47.996.986 1.541 1.548a75.86 75.86 0 0 0-1.486 1.466c-.482.488-1.005.995-1.568 1.52l-2.973-2.986a215.954 215.954 0 0 1 2.973-3.014zm-6.027 0c.527.507 1.031.995 1.513 1.466.482.47.996.986 1.541 1.548a75.86 75.86 0 0 0-1.486 1.466c-.482.488-1.005.995-1.568 1.52l-2.973-2.986a215.954 215.954 0 0 1 2.973-3.014zm-8.288 0c.528.507 1.032.995 1.514 1.466.482.47.995.986 1.54 1.548-.508.488-1.004.977-1.486 1.466-.481.488-1.004.995-1.568 1.52l-2.972-2.986a215.954 215.954 0 0 1 2.973-3.014zm-6.027 0c.527.507 1.032.995 1.514 1.466.482.47.995.986 1.54 1.548a75.86 75.86 0 0 0-1.486 1.466c-.481.488-1.004.995-1.568 1.52l-2.972-2.986A215.954 215.954 0 0 1 1104.07 66zm26.369 0c.527.507 1.032.995 1.513 1.466.482.47.996.986 1.541 1.548a75.86 75.86 0 0 0-1.486 1.466c-.482.488-1.005.995-1.568 1.52l-2.973-2.986A215.91 215.91 0 0 1 1130.44 66zm-91.52-15.398c.56.472 1.124.999 1.69 1.579a16.04 16.04 0 0 1 1.546 1.837c.464.644.847 1.31 1.15 1.998.302.687.474 1.37.517 2.046 0 .763-.153 1.488-.46 2.175a5.978 5.978 0 0 1-3.068 3.054 5.37 5.37 0 0 1-2.201.459h-4.047v-3.094h3.982c.453 0 .85-.078 1.19-.233.34-.156.62-.358.841-.605.221-.247.389-.529.502-.846a3.11 3.11 0 0 0 .186-.942c-.054-.376-.205-.779-.453-1.209a8.703 8.703 0 0 0-.93-1.297 16.353 16.353 0 0 0-1.247-1.297 31.84 31.84 0 0 0-1.384-1.225l2.185-2.4zm9.107-6.258v13.422c0 .376.062.717.187 1.024a2.48 2.48 0 0 0 1.19 1.33c.23.118.467.202.712.25h1.434l-.016-5.623c0-.784.151-1.52.453-2.207a5.83 5.83 0 0 1 1.23-1.805 5.833 5.833 0 0 1 1.821-1.225 5.55 5.55 0 0 1 2.226-.45c.518 0 1.022.072 1.513.217.491.145.952.349 1.384.612.432.263.828.58 1.19.95.361.371.677.782.947 1.233h2.767c.788 0 1.527.15 2.218.451.69.301 1.295.71 1.813 1.225.518.516.928 1.12 1.23 1.813.302.693.453 1.431.453 2.215v2.595h2.444a2.667 2.667 0 0 0 1.554-.814c.205-.22.367-.484.486-.79a2.81 2.81 0 0 0 .178-1.023V51.75h3.091v5.994c0 .376.062.717.186 1.023a2.48 2.48 0 0 0 1.19 1.33c.27.14.55.23.842.274.002.002.005 0 .007 0 .291-.043.572-.135.842-.274a2.48 2.48 0 0 0 1.19-1.33c.124-.306.186-.647.186-1.023V51.75h3.091v5.994c0 .42.076.795.227 1.128.15.333.348.612.59.838.243.226.521.397.834.516.313.118.631.177.955.177a2.619 2.619 0 0 0 1.772-.693c.243-.226.44-.505.591-.838a2.7 2.7 0 0 0 .227-1.128V51.75h3.124v5.994c0 .42.073.792.218 1.12a2.506 2.506 0 0 0 1.408 1.345c.308.119.624.183.947.194.324-.01.64-.075.947-.194a2.541 2.541 0 0 0 1.417-1.345c.15-.328.226-.7.226-1.12V51.75h3.092v5.994c0 .376.062.717.186 1.023.124.306.286.57.485.79a2.578 2.578 0 0 0 1.53.814h3.79c1.37-.043 2.19-.135 2.46-.274.27-.14.508-.32.713-.54.205-.22.367-.484.485-.79a2.81 2.81 0 0 0 .179-1.023V51.75h3.091v5.994c0 .376.062.717.186 1.023a2.48 2.48 0 0 0 1.19 1.33c.27.14.55.23.842.274h8.182c2.504.064 3.89-.135 4.16-.274a2.48 2.48 0 0 0 1.19-1.33c.124-.306.186-.647.186-1.023V51.75h3.092v6.059c0 .752-.138 1.458-.413 2.118a5.785 5.785 0 0 1-2.825 2.998c-.647.316-2.444.625-5.39.572h-8.182v-.017a5.528 5.528 0 0 1-1.975-.54 7.101 7.101 0 0 1-1.78-1.232 7.58 7.58 0 0 1-1.773 1.225c-.631.311-1.837.494-3.618.547h-3.79a5.457 5.457 0 0 1-1.967-.54 7.16 7.16 0 0 1-1.772-1.232 7.399 7.399 0 0 1-1.95 1.29 5.64 5.64 0 0 1-2.161.499 5.25 5.25 0 0 1-2.185-.484 7.64 7.64 0 0 1-1.991-1.321c-.648.601-1.32 1.04-2.015 1.313a7.275 7.275 0 0 1-2.145.492 5.65 5.65 0 0 1-2.145-.476 6.952 6.952 0 0 1-1.999-1.313 7.58 7.58 0 0 1-1.772 1.225 5.386 5.386 0 0 1-1.983.547l-.007-.002v.002a5.528 5.528 0 0 1-1.975-.54 7.101 7.101 0 0 1-1.78-1.232 7.58 7.58 0 0 1-1.773 1.225 5.41 5.41 0 0 1-1.999.547h-22.978v.023a5.556 5.556 0 0 1-2.08-.556 5.785 5.785 0 0 1-2.816-2.997 5.455 5.455 0 0 1-.413-2.12V44.345h3.091zm9.22 8.527a3.157 3.157 0 0 0-.954.217c-.313.124-.591.298-.834.524-.243.225-.44.502-.59.83a2.687 2.687 0 0 0-.227 1.136v5.59h2.622c.323 0 .642-.047.955-.144.313-.097.59-.255.833-.475.243-.22.44-.5.591-.838.151-.339.227-.744.227-1.217v-2.916c0-.473-.076-.881-.227-1.225a2.456 2.456 0 0 0-.59-.846 2.362 2.362 0 0 0-.842-.491 2.71 2.71 0 0 0-.963-.145zm7.738 3.045h-1.991v2.626c0 .366-.052.766-.154 1.2-.103.436-.246.9-.43 1.395h5.278v-2.61c0-.323-.06-.642-.178-.96a2.425 2.425 0 0 0-.527-.837 2.692 2.692 0 0 0-.85-.588 2.776 2.776 0 0 0-1.148-.226zm8.197-11.666c.528.507 1.032.995 1.514 1.466.482.47.995.986 1.54 1.548a75.86 75.86 0 0 0-1.486 1.466c-.481.488-1.004.995-1.568 1.52l-2.972-2.986a215.953 215.953 0 0 1 2.973-3.014zm19.588 0c.528.507 1.032.995 1.514 1.466.482.47.995.986 1.54 1.548a75.86 75.86 0 0 0-1.485 1.466c-.482.488-1.005.995-1.569 1.52l-2.972-2.986a215.953 215.953 0 0 1 2.973-3.014zm-6.027 0c.528.507 1.032.995 1.514 1.466.482.47.995.986 1.54 1.548a75.86 75.86 0 0 0-1.486 1.466c-.481.488-1.004.995-1.568 1.52l-2.972-2.986a215.91 215.91 0 0 1 2.973-3.014zm12.054 0c.528.507 1.032.995 1.514 1.466.482.47.996.986 1.54 1.548-.508.488-1.004.977-1.485 1.466-.482.488-1.005.995-1.569 1.52l-2.972-2.986a215.953 215.953 0 0 1 2.973-3.014z"/>
        </g>
        <g mask="url(#b)">
            <g transform="translate(440 42)">
                <mask id="d" fill="#fff">
                    <use xlink:href="#c"/>
                </mask>
                <use fill="#FFF" fill-rule="nonzero" xlink:href="#c"/>
                <g mask="url(#d)">
                    <path fill="#FFF" d="M0 0h299v30H0z"/>
                </g>
            </g>
        </g>
    </g>
</svg>
